<?xml version="1.0" encoding="UTF-8" standalone="no"?>
<svg
   xmlns="http://www.w3.org/2000/svg"
   version="1.1"
   viewBox="0 0 94.905739 86.463112"
   width="94.905739mm"
   height="86.463112mm">
  <path
     d="M 0,0 V 86.463115 H 94.905736 V 0 Z m 9.566134,9.86835 h 75.773482 v 43.418815 h -10.233 v 10.74219 h -14.74997 v 12.5654 H 34.549107 v -12.5654 H 19.799131 V 53.287165 H 9.566134 Z m 4.484123,2.440805 c -0.507352,0 -0.960944,0.1845 -1.363305,0.55194 -0.384852,0.36737 -0.578169,0.98792 -0.578169,1.86263 v 13.46223 c 0,0.64725 0.202089,1.15358 0.604424,1.52098 0.419881,0.36737 0.90862,0.55192 1.468423,0.55192 0.57728,0 1.074855,-0.18448 1.49471,-0.55192 0.41988,-0.36737 0.630742,-0.87371 0.630742,-1.52098 v -6.48145 l 4.487409,7.40127 c 0.454843,0.76973 1.049046,1.15305 1.783793,1.15305 0.699761,0 1.285177,-0.38332 1.757516,-1.15305 l 4.513707,-7.40127 v 6.48145 c 0,0.64725 0.202088,1.15359 0.604487,1.52099 0.419816,0.36737 0.92619,0.55191 1.52099,0.55191 0.542316,0 1.025575,-0.18448 1.445429,-0.55191 0.419881,-0.36738 0.627436,-0.87372 0.627436,-1.52099 v -13.46223 c 0,-0.87467 -0.198783,-1.49524 -0.60118,-1.86263 -0.384854,-0.36738 -0.84177,-0.55194 -1.366591,-0.55194 -0.402335,0 -0.81205,0.11425 -1.231905,0.34165 -0.402335,0.22745 -0.727464,0.55254 -0.97238,0.97237 l -6.297489,10.89002 -6.323764,-10.89003 c -0.244934,-0.41987 -0.566726,-0.74494 -0.969098,-0.97237 -0.402335,-0.22745 -0.815331,-0.34164 -1.235185,-0.34164 z m 33.376339,0 c -0.59476,0 -1.07478,0.15817 -1.44215,0.47304 -0.36737,0.29738 -0.71005,0.71034 -1.02494,1.23519 l -7.792196,13.01546 c -0.227454,0.38485 -0.341627,0.76819 -0.341627,1.15305 0,0.57729 0.219635,1.06608 0.657015,1.46843 0.437364,0.40234 0.943686,0.60443 1.52099,0.60443 0.752237,0 1.328869,-0.33387 1.731228,-0.99867 l 2.30941,-3.85667 h 8.76458 l 2.36196,3.88295 c 0.20991,0.3499 0.46476,0.60469 0.76214,0.76214 0.29738,0.13998 0.61924,0.21023 0.96909,0.21023 0.2799,0 0.5523,-0.0527 0.81471,-0.15765 0.26241,-0.10502 0.49088,-0.24557 0.68329,-0.42052 0.20991,-0.19243 0.37684,-0.40883 0.49934,-0.65373 0.12244,-0.24495 0.18067,-0.51727 0.18067,-0.8147 0,-0.1925 -0.035,-0.37696 -0.10515,-0.55192 -0.0528,-0.19242 -0.12828,-0.39121 -0.23323,-0.60118 l -7.82176,-13.04173 c -0.33241,-0.54232 -0.68056,-0.96406 -1.04794,-1.26148 -0.36737,-0.29737 -0.85063,-0.44675 -1.44543,-0.44675 z m 16.5042,0.13141 c -1.38202,0 -2.07288,0.70844 -2.07288,2.12544 v 13.40967 c 0,1.41702 0.69086,2.12545 2.07288,2.12545 h 16.79658 c 1.38203,0 2.07288,-0.70843 2.07288,-2.12545 v -8.81713 h -10.47281 c -0.66475,0 -1.17988,0.21093 -1.54727,0.63074 -0.36737,0.41988 -0.55191,0.91742 -0.55191,1.4947 0,0.57734 0.18448,1.07487 0.55191,1.49472 0.36737,0.40232 0.8825,0.60447 1.54727,0.60447 h 6.29748 v 2.49338 h -12.59496 v -9.18506 h 14.59229 c 0.66475,0 1.17987,-0.20762 1.54727,-0.62744 0.38485,-0.41987 0.57816,-0.92072 0.57816,-1.49799 0,-0.57735 -0.19331,-1.07489 -0.57816,-1.49471 -0.36737,-0.41982 -0.8825,-0.63074 -1.54727,-0.63074 z m -16.5042,5.69632 2.33569,3.88295 h -4.67138 z m 16.21512,14.72369 c -0.54232,0 -0.97897,0.19409 -1.31075,0.57817 -0.33177,0.36661 -0.49934,0.89265 -0.49934,1.54728 v 13.75131 c 0,0.61542 0.19681,1.16047 0.60442,1.52099 0.42548,0.36006 0.90128,0.5615 1.46843,0.55191 0.58491,-0.0102 1.07291,-0.17756 1.498,-0.55191 0.42509,-0.37431 0.62744,-0.87371 0.62744,-1.52099 v -9.55298 l 12.93661,11.12653 c 0.47232,0.36737 1.01709,0.5519 1.62939,0.5519 0.27996,0 0.54905,-0.0527 0.81142,-0.15772 0.26235,-0.0874 0.4996,-0.23679 0.70957,-0.44676 0.20998,-0.20997 0.37691,-0.47354 0.49934,-0.78843 0.12269,-0.31486 0.18397,-0.6982 0.18397,-1.15306 v -13.3308 c 0,-0.66481 -0.21085,-1.17114 -0.63074,-1.52099 -0.40239,-0.36738 -0.89115,-0.55191 -1.46842,-0.55191 -0.55987,0 -1.0519,0.18446 -1.47172,0.55191 -0.41981,0.34989 -0.62743,0.85621 -0.62743,1.52099 v 9.81579 l -12.83475,-11.02142 c -0.38727,-0.32923 -0.75903,-0.5701 -1.12678,-0.70958 -0.36769,-0.13947 -0.70122,-0.21022 -0.99866,-0.21022 z m -49.460059,0.0527 c -0.559798,0 -1.048568,0.18448 -1.468424,0.55192 -0.402335,0.34988 -0.604423,0.8562 -0.604423,1.52098 v 13.59362 c 0,1.41703 0.690853,2.12545 2.072878,2.12545 h 16.921378 c 0.612305,0 1.083493,-0.20209 1.415869,-0.60442 0.34989,-0.41982 0.525597,-0.92617 0.525597,-1.52099 0,-0.57728 -0.175707,-1.06606 -0.525597,-1.46844 -0.332345,-0.41981 -0.803565,-0.63073 -1.41587,-0.63073 H 16.28082 v -11.49449 c 0,-0.66481 -0.210925,-1.17115 -0.63074,-1.521 -0.41988,-0.36737 -0.908626,-0.55192 -1.46843,-0.55192 z m 33.244939,0 c -0.59476,0 -1.07476,0.15816 -1.44215,0.47303 -0.36737,0.29737 -0.71005,0.70706 -1.02494,1.23189 l -7.792196,13.01546 c -0.227454,0.38485 -0.341627,0.77147 -0.341627,1.15634 0,0.57728 0.219635,1.06608 0.657015,1.46844 0.437364,0.40232 0.943705,0.60447 1.52099,0.60447 0.752244,0 1.328874,-0.33387 1.731228,-0.99866 l 2.30941,-3.85668 h 8.76458 l 2.36196,3.88295 c 0.20991,0.3499 0.4647,0.60468 0.76214,0.76214 0.29744,0.13998 0.61924,0.21023 0.96909,0.21023 0.27997,0 0.5523,-0.0527 0.81471,-0.15773 0.26235,-0.105 0.49082,-0.24555 0.68329,-0.4205 0.20991,-0.19243 0.37684,-0.41211 0.49934,-0.65701 0.12244,-0.24495 0.18067,-0.51403 0.18067,-0.81141 0,-0.19248 -0.035,-0.37697 -0.10515,-0.55191 -0.0528,-0.19242 -0.12828,-0.39452 -0.23323,-0.60443 l -7.82176,-13.0417 c -0.33235,-0.54231 -0.68055,-0.96077 -1.04794,-1.25818 -0.36737,-0.29738 -0.85061,-0.44676 -1.44543,-0.44676 z m 0,5.82444 2.33569,3.88622 h -4.67138 z"
     style="fill:#000000" />
</svg>
