<?xml version="1.0" encoding="UTF-8" standalone="no"?>
<svg
   xmlns="http://www.w3.org/2000/svg"
   version="1.1"
   viewBox="0 0 171.63242 18.03301"
   width="171.63242mm"
   height="18.03301mm">
  <path
     d="M 75.919396,0 V 18.03301 H 95.713018 V 0 Z M 152.4739,0.0155 c -0.54232,0 -0.97874,0.19417 -1.31052,0.57826 -0.33177,0.3666 -0.49919,0.89256 -0.49919,1.54719 v 13.7511 c 0,0.61541 0.19649,1.16082 0.6041,1.52135 0.42548,0.36005 0.90149,0.56148 1.46864,0.5519 0.58491,-0.0102 1.07301,-0.17756 1.4981,-0.5519 0.42509,-0.37432 0.62735,-0.87406 0.62735,-1.52135 V 6.33914 l 12.93668,11.12645 c 0.47232,0.36736 1.01706,0.55191 1.62936,0.55191 0.27996,0 0.54895,-0.0526 0.81132,-0.15762 0.26235,-0.0874 0.49954,-0.23652 0.70952,-0.44648 0.20998,-0.20998 0.37676,-0.47371 0.49919,-0.78858 0.12269,-0.31487 0.18397,-0.69805 0.18397,-1.1529 V 2.14095 c 0,-0.66483 -0.21056,-1.17099 -0.63045,-1.52084 -0.40239,-0.36738 -0.89138,-0.5519 -1.46865,-0.5519 -0.55987,0 -1.05192,0.18446 -1.47174,0.5519 -0.41981,0.34989 -0.62735,0.85605 -0.62736,1.52084 v 9.81593 L 154.59935,0.93533 C 154.21208,0.6061 153.84055,0.3653 153.4728,0.22582 153.10511,0.08635 152.77134,0.0155 152.4739,0.0155 Z M 35.31774,0.0419 v 5.2e-4 c -0.594757,0 -1.07492,0.15797 -1.442289,0.47284 -0.367371,0.29738 -0.709853,0.71021 -1.024742,1.23506 l -7.792291,13.01571 c -0.227449,0.38485 -0.34158,0.76803 -0.34158,1.1529 0,0.57728 0.219943,1.0663 0.657323,1.46864 0.437359,0.40235 0.943536,0.6041 1.520838,0.6041 0.75224,0 1.328799,-0.33359 1.731161,-0.99839 l 2.309418,-3.85661 h 8.764323 l 2.362131,3.88245 c 0.209913,0.34989 0.46485,0.60478 0.762228,0.76222 0.297381,0.13997 0.619085,0.21033 0.968933,0.21033 0.2799,0 0.552527,-0.0526 0.814938,-0.15762 0.262411,-0.10501 0.490749,-0.2457 0.683162,-0.42064 0.20991,-0.19244 0.376695,-0.40881 0.499195,-0.65371 0.122441,-0.24495 0.180866,-0.51698 0.180866,-0.81442 0,-0.1925 -0.03527,-0.37695 -0.10542,-0.5519 -0.0528,-0.19243 -0.128112,-0.39154 -0.233061,-0.60152 L 37.811128,1.75028 C 37.478719,1.20796 37.130509,0.78628 36.763129,0.48886 36.395761,0.19149 35.912539,0.04186 35.31774,0.04186 Z M 1.941484,0.04242 c -0.507351,0 -0.960861,0.18446 -1.363224,0.5519 C 0.193408,0.96168 0,1.58203 0,2.45674 v 13.46223 c 0,0.64725 0.202281,1.15343 0.604615,1.52083 0.41988,0.36738 0.908325,0.55191 1.468127,0.55191 0.577282,0 1.075146,-0.18447 1.494999,-0.55191 0.419881,-0.36736 0.630453,-0.87357 0.630453,-1.52083 V 9.43771 l 4.48758,7.4011 c 0.45484,0.76974 1.049131,1.1529 1.783871,1.1529 0.69977,0 1.285174,-0.38316 1.757516,-1.1529 l 4.513419,-7.4011 v 6.48126 c 0,0.64725 0.202223,1.15343 0.604615,1.52083 0.41982,0.36737 0.926028,0.55191 1.520838,0.55191 0.542311,0 1.025541,-0.18448 1.44539,-0.55191 0.419891,-0.36737 0.627867,-0.87357 0.627867,-1.52083 V 2.45674 c 0,-0.87467 -0.19911,-1.49503 -0.601512,-1.86242 -0.38486,-0.36739 -0.841505,-0.5519 -1.366327,-0.5519 -0.402336,0 -0.812107,0.11418 -1.231966,0.34158 -0.402331,0.22745 -0.727631,0.5522 -0.97255,0.97203 L 10.469645,12.24632 4.146001,1.35603 C 3.901065,0.93616 3.578922,0.61143 3.176551,0.384 2.774215,0.15655 2.361338,0.04242 1.941484,0.04242 Z m 101.072386,0.0258 c -0.5598,0 -1.04827,0.18445 -1.46813,0.5519 -0.40233,0.34987 -0.60461,0.85605 -0.60461,1.52084 v 13.594 c 0,1.41702 0.69071,2.12545 2.07274,2.12545 h 16.92145 c 0.61228,0 1.08355,-0.20226 1.41593,-0.60462 0.34989,-0.41982 0.52555,-0.92601 0.52555,-1.52083 0,-0.57729 -0.17566,-1.06627 -0.52555,-1.46864 -0.33235,-0.41982 -0.80365,-0.63046 -1.41593,-0.63046 H 105.11296 V 2.14096 c 0,-0.66482 -0.21063,-1.17099 -0.63045,-1.52084 -0.41988,-0.36736 -0.90884,-0.5519 -1.46864,-0.5519 z m 33.245,0 c -0.59476,0 -1.0749,0.15796 -1.44229,0.47283 -0.36737,0.29737 -0.70985,0.70715 -1.02475,1.23197 l -7.79228,13.01574 c -0.22745,0.38486 -0.34159,0.77115 -0.34159,1.15601 0,0.57728 0.21995,1.06628 0.65733,1.46864 0.43736,0.40232 0.94353,0.60461 1.52084,0.60461 0.75224,0 1.32879,-0.33411 1.73115,-0.9989 l 2.30943,-3.85661 h 8.76432 l 2.36213,3.88296 c 0.20991,0.34989 0.46479,0.60476 0.76222,0.76223 0.29745,0.13997 0.61909,0.21032 0.96894,0.21032 0.27997,0 0.55253,-0.0531 0.81494,-0.15813 0.26235,-0.105 0.49069,-0.24517 0.68316,-0.42013 0.20991,-0.19242 0.37669,-0.41243 0.49919,-0.65732 0.12244,-0.24494 0.18087,-0.51395 0.18087,-0.81132 0,-0.19248 -0.0353,-0.37699 -0.10542,-0.5519 -0.0528,-0.19244 -0.12811,-0.39472 -0.23306,-0.60462 L 138.75226,1.77302 c -0.33236,-0.5423 -0.68061,-0.96091 -1.048,-1.25832 -0.36737,-0.29739 -0.85057,-0.44648 -1.44539,-0.44648 z M 51.82216,0.17363 c -1.382022,0 -2.07326,0.70846 -2.07326,2.12546 V 15.7086 c 0,1.41701 0.691238,2.12545 2.07326,2.12545 h 16.79639 c 1.38203,0 2.072743,-0.70844 2.072743,-2.12545 V 6.89157 H 60.218548 c -0.664753,0 -1.179804,0.21116 -1.547194,0.63097 -0.367371,0.41988 -0.551905,0.91719 -0.551905,1.49448 0,0.57734 0.184473,1.07464 0.551905,1.49448 0.367369,0.40232 0.882425,0.60462 1.547194,0.60462 h 6.297805 v 2.49339 H 53.921255 V 4.42454 h 14.592393 c 0.664752,0 1.17979,-0.20753 1.54719,-0.62735 0.38485,-0.41987 0.57826,-0.92083 0.57826,-1.4981 0,-0.57735 -0.19341,-1.07467 -0.57826,-1.49449 C 69.69347,0.38478 69.178419,0.17363 68.513648,0.17363 Z m 26.092464,1.88464 h 15.803164 v 9.05578 h -2.13423 v 2.24017 h -3.0763 v 2.62052 h -5.3821 V 13.35422 H 80.048859 V 11.11405 H 77.914624 Z M 35.31774,5.86993 37.653516,9.75289 h -4.67155 z m 100.94113,0.0227 2.33577,3.88606 h -4.67155 z"
     style="fill:#000000" />
</svg>
